<svg width="81" height="80" viewBox="0 0 81 80" fill="none" xmlns="http://www.w3.org/2000/svg">
<path d="M32.0155 76.365C34.6932 76.365 36.864 74.1942 36.864 71.5165C36.864 68.8387 34.6932 66.668 32.0155 66.668C29.3377 66.668 27.167 68.8387 27.167 71.5165C27.167 74.1942 29.3377 76.365 32.0155 76.365Z" stroke="black" stroke-width="3" stroke-linecap="round" stroke-linejoin="round"/>
<path d="M65.0457 76.365C67.7235 76.365 69.8942 74.1942 69.8942 71.5165C69.8942 68.8387 67.7235 66.668 65.0457 66.668C62.368 66.668 60.1973 68.8387 60.1973 71.5165C60.1973 74.1942 62.368 76.365 65.0457 76.365Z" stroke="black" stroke-width="3" stroke-linecap="round" stroke-linejoin="round"/>
<path d="M3.8335 3.33398H17.1668L26.1002 47.9673C26.405 49.502 27.2399 50.8805 28.4586 51.8617C29.6774 52.8428 31.2025 53.364 32.7668 53.334H65.1668C66.7312 53.364 68.2562 52.8428 69.475 51.8617C70.6938 50.8805 71.5287 49.502 71.8335 47.9673L77.1668 20.0007H20.5002" stroke="black" stroke-width="3" stroke-linecap="round" stroke-linejoin="round"/>
<path d="M45.7731 30.7915C45.6181 30.6365 45.4342 30.5136 45.2317 30.4298C45.0292 30.3459 44.8122 30.3027 44.5931 30.3027C44.3739 30.3027 44.1569 30.3459 43.9545 30.4298C43.752 30.5136 43.568 30.6365 43.4131 30.7915C43.2581 30.9465 43.1352 31.1304 43.0513 31.3329C42.9675 31.5354 42.9243 31.7524 42.9243 31.9715C42.9243 32.1907 42.9675 32.4077 43.0513 32.6101C43.1352 32.8126 43.2581 32.9965 43.4131 33.1515L47.2364 36.9715L43.4131 40.7915C43.2581 40.9465 43.1352 41.1304 43.0513 41.3329C42.9675 41.5354 42.9243 41.7524 42.9243 41.9715C42.9243 42.1907 42.9675 42.4077 43.0513 42.6101C43.1352 42.8126 43.2581 42.9965 43.4131 43.1515C43.568 43.3065 43.752 43.4294 43.9545 43.5133C44.1569 43.5971 44.3739 43.6403 44.5931 43.6403C44.8122 43.6403 45.0292 43.5971 45.2317 43.5133C45.4342 43.4294 45.6181 43.3065 45.7731 43.1515L49.5931 39.3282L53.4131 43.1515C53.7261 43.4645 54.1505 43.6403 54.5931 43.6403C55.0357 43.6403 55.4601 43.4645 55.7731 43.1515C56.0861 42.8386 56.2619 42.4141 56.2619 41.9715C56.2619 41.5289 56.0861 41.1045 55.7731 40.7915L51.9498 36.9715L55.7731 33.1515C56.0861 32.8386 56.2619 32.4141 56.2619 31.9715C56.2619 31.5289 56.0861 31.1045 55.7731 30.7915C55.4601 30.4786 55.0357 30.3027 54.5931 30.3027C54.1505 30.3027 53.7261 30.4786 53.4131 30.7915L49.5931 34.6148L45.7731 30.7915Z" fill="black"/>
</svg>
